<svg xmlns="http://www.w3.org/2000/svg" width="96" height="96" viewBox="0 0 96 96">
    <g transform="rotate(8 44 52)"><rect x="8" y="16" width="72" height="72" rx="16" fill="#FEC9E0"></rect></g>
    <g transform="rotate(-3 48 48)"><rect x="12" y="12" width="72" height="72" rx="16" fill="#791649"></rect></g>
    <g transform="translate(24,24)"><svg width="48" height="48" viewBox="0 0 24 24">
      <rect x="2.5" y="10.5" width="10" height="8.5" rx="1" fill="none" stroke="#FCF2F0" stroke-width="1.6"></rect>
      <line x1="2.5" y1="14.5" x2="12.5" y2="14.5" stroke="#FCF2F0" stroke-width="1.2"></line>
      <rect x="9.5" y="4.5" width="12" height="8.5" rx="1" fill="none" stroke="#FCF2F0" stroke-width="1.6"></rect>
      <line x1="9.5" y1="8.5" x2="21.5" y2="8.5" stroke="#FCF2F0" stroke-width="1.2"></line>
    </svg></g>
    <g transform="translate(74,10) scale(1.15)"><path d="M0 2.2c.5 2.4 1.4 3.7 3.9 4.1-2.5.4-3.4 1.5-3.9 3.9C-.5 8.8-1.4 7.7-3.9 7.3c2.5-.4 3.4-1.7 3.9-4.1z" fill="#EC4B15"></path></g>
  </svg>
